<?xml version="1.0" encoding="utf-8"?>
<!-- Generator: Adobe Illustrator 24.1.3, SVG Export Plug-In . SVG Version: 6.00 Build 0)  -->
<svg version="1.1" id="Laag_1" xmlns="http://www.w3.org/2000/svg" xmlns:xlink="http://www.w3.org/1999/xlink" x="0px" y="0px"
	 viewBox="0 0 976.7 127.2" style="enable-background:new 0 0 976.7 127.2;" xml:space="preserve">
<style type="text/css">
	.st0{fill:#E73649;}
	.st1{fill:#FFFFFF;}
	.st2{fill:#208CCA;}
	.st3{font-family:'typicons';}
	.st4{font-size:45.0613px;}
</style>
<g>
	<path class="st0" d="M67.6,49.1c-6.7-3.9-13.8-6.4-21.6-7.5v63.9H27.9V41.6c-7.7,1.1-14.9,3.6-21.7,7.5L0,35.5
		c10.9-6.5,23.7-9.7,36.8-9.7c13.2,0,26.2,3.2,37,9.7L67.6,49.1z"/>
	<path class="st0" d="M142.3,71v34.5h-17.5V73.7c0-9.7-4.5-14.2-12.2-14.2c-8.4,0-14.4,5.2-14.4,16.2v29.8H80.7V22.4h17.5v29.1
		c4.7-4.7,11.4-7.2,19.2-7.2C131.6,44.4,142.3,52.7,142.3,71z"/>
	<path class="st0" d="M204.3,86.6l9.3,10.1c-5.6,6.4-14,9.7-24.9,9.7c-20.8,0-34.4-13.1-34.4-31c0-18,13.7-31,32.3-31
		c17,0,31,11.2,31.1,30.5l-44.6,8.6c2.6,5.9,8.2,9,16,9C195.5,92.4,200.1,90.5,204.3,86.6z M171.5,73.6l29.3-5.7
		c-1.7-6.2-6.9-10.3-14.2-10.3C177.8,57.6,171.8,63.4,171.5,73.6z"/>
	<path class="st1" d="M280.6,105.5l-15.1-21.8h-0.9h-15.8v21.8h-18.1V27.1h33.9c20.9,0,34,10.9,34,28.4c0,11.8-5.9,20.4-16.1,24.8
		l17.6,25.2H280.6z M263.6,41.9h-14.8v27.3h14.8c11.1,0,16.7-5.2,16.7-13.7C280.3,46.9,274.7,41.9,263.6,41.9z"/>
	<path class="st1" d="M357.2,86.6l9.3,10.1c-5.6,6.4-14,9.7-24.9,9.7c-20.8,0-34.4-13.1-34.4-31c0-18,13.7-31,32.3-31
		c17,0,31,11.2,31.1,30.5l-44.6,8.6c2.6,5.9,8.2,9,16,9C348.5,92.4,353.1,90.5,357.2,86.6z M324.4,73.6l29.3-5.7
		c-1.7-6.2-6.9-10.3-14.2-10.3C330.8,57.6,324.8,63.4,324.4,73.6z"/>
	<path class="st1" d="M382.4,85.6V22.4h17.5v62.2c0,5.2,2.7,8,7.5,8c1.9,0,3.9-0.6,4.9-1.1l0.8,13.6c-3,1-6,1.5-9.1,1.5
		C390.5,106.4,382.4,99,382.4,85.6z"/>
	<path class="st1" d="M481.8,45.3v60.3h-16.7v-6.9c-4.4,5.3-10.8,7.8-18.8,7.8c-17,0-30.1-12.1-30.1-31c0-18.9,13.1-31,30.1-31
		c7.4,0,13.7,2.4,18,7.3v-6.4H481.8z M464.6,75.4c0-10.4-6.7-16.7-15.3-16.7c-8.7,0-15.5,6.3-15.5,16.7s6.7,16.7,15.5,16.7
		C457.9,92.1,464.6,85.8,464.6,75.4z"/>
	<path class="st1" d="M534.2,102.6c-3.6,2.6-8.8,3.8-14.1,3.8c-14.3,0-22.5-7.3-22.5-21.6V31.9H515v14.7h14.9V60H515v24.5
		c0,5.2,2.7,8,7.4,8c2.6,0,5.2-0.8,7.2-2.2L534.2,102.6z"/>
	<path class="st1" d="M544,45.3h17.5v60.3H544V45.3z"/>
	<path class="st1" d="M573.3,75.4c0-18.1,14-31,33.1-31c19.2,0,33,12.9,33,31s-13.9,31-33,31C587.3,106.4,573.3,93.5,573.3,75.4z
		 M621.8,75.4c0-10.4-6.6-16.7-15.3-16.7c-8.7,0-15.5,6.3-15.5,16.7s6.7,16.7,15.5,16.7C615.2,92.1,621.8,85.8,621.8,75.4z"/>
	<path class="st1" d="M712.7,71v34.5h-17.5V73.7c0-9.7-4.5-14.2-12.2-14.2c-8.4,0-14.4,5.2-14.4,16.2v29.8h-17.5V45.3h16.7v7.1
		c4.7-5.2,11.8-8,19.9-8C702,44.4,712.7,52.7,712.7,71z"/>
	<path class="st2" d="M723.6,97.8l6.2-13.7c6.6,4.8,16.5,8.2,25.9,8.2c10.8,0,15.1-3.6,15.1-8.4c0-14.7-45.6-4.6-45.6-33.7
		c0-13.3,10.8-24.4,33-24.4c9.9,0,19.9,2.4,27.2,6.9l-5.6,13.8c-7.3-4.1-14.8-6.2-21.7-6.2c-10.8,0-14.9,4-14.9,9
		c0,14.4,45.6,4.5,45.6,33.3c0,13.1-10.9,24.3-33.3,24.3C743.1,106.9,730.5,103.2,723.6,97.8z"/>
	<path class="st2" d="M861.5,71v34.5h-17.5V73.7c0-9.7-4.5-14.2-12.2-14.2c-8.4,0-14.4,5.2-14.4,16.2v29.8h-17.5V22.4h17.5v29.1
		c4.7-4.7,11.4-7.2,19.2-7.2C850.8,44.4,861.5,52.7,861.5,71z"/>
	<path class="st2" d="M877.3,45.3h17.5v60.3h-17.5V45.3z"/>
	<path class="st2" d="M976.7,75.4c0,18.9-13.1,31-30,31c-7.5,0-13.7-2.4-18.1-7.3v28.1H911v-82h16.7v6.9c4.4-5.3,10.9-7.8,18.9-7.8
		C963.6,44.4,976.7,56.5,976.7,75.4z M959,75.4c0-10.4-6.6-16.7-15.3-16.7c-8.7,0-15.3,6.3-15.3,16.7s6.6,16.7,15.3,16.7
		C952.4,92.1,959,85.8,959,75.4z"/>
</g>
<text transform="matrix(1 0 0 1 534.4733 31.0258)" class="st1 st3 st4"></text>
<text transform="matrix(1 0 0 1 868.1823 31.0258)" class="st2 st3 st4"></text>
</svg>
